<svg xmlns="http://www.w3.org/2000/svg" viewBox="0 0 1364 960"><path fill="#ff7242" d="M836.73,70.36c3.76-1.13,6.69-5.11,7.52-10.21l.45-2.78.45,2.78c.83,5.1,3.76,9.08,7.51,10.21l2.05.61-2.05.61c-3.75,1.13-6.68,5.11-7.51,10.2l-.45,2.79-.45-2.79c-.83-5.09-3.76-9.07-7.52-10.2L834.68,71Z"/><path fill="#bab20f" d="M1121.18,527.61q-8.79,3.63-17.51,7.72s4.27,2,9.53,4.33c-8.77,12.76-17.94,24.74-27,36.06-.35.43-.7.85-1,1.28-6.77,8.54-13.44,16.61-19.71,24.09l-.6.7c-15.82,18.86-29.07,34-35.42,41-1.64,1.81-2.81,3.07-3.43,3.72a6.65,6.65,0,0,1-.49.51s-.15-.21-.4-.62c-.43-.69-1.21-1.95-2.25-3.75-9.55-15.25-42.72-82.72-22.32-161.8.08-.34.16-.69.27-1.09a190.93,190.93,0,0,1,13.64-36.54l.67-1.31c.27-.64.62-1.33.94-1.94A198.54,198.54,0,0,1,1061,383.14c-1.58,6.78.9,11.45,5.2,15.19-1.74-6.28-1.33-17.11,9.11-26.69A223.78,223.78,0,0,1,1109.56,351c.31-.19.66-.33,1-.5,40.89-19.61,74.8-21.14,79.83-21.52.49,0,.75,0,.75,0s0,.25-.14.7c-.68,3.35-4.19,18.69-9.64,39.69a6.61,6.61,0,0,0-.25,1c-3.17,12.12-6.88,26-11.11,40.78a3.66,3.66,0,0,1-.75,1.38c-8.06,9.16-17.35,12.74-28.84,10.14,6.41,6,14.14,9,23.9,7.59-1.74,5.75-3.61,11.57-5.62,17.41-.1.33-.21.58-.31.92-6.12,17.84-13.21,35.92-22.49,53.76C1131.28,511.11,1126.3,519.54,1121.18,527.61Z"/><path fill="#0f0f5c" d="M1026,646.87a.35.35,0,0,1-.34-.26c-6.85-26.08-3.23-59.75,10.75-100.06,12.66-36.5,31.66-71.87,45.38-95.11,30.8-52.2,61.43-83.36,107.16-122.62a.34.34,0,0,1,.49,0,.35.35,0,0,1,0,.49c-45.68,39.21-76.26,70.33-107,122.45-13.7,23.21-32.68,58.53-45.32,95-13.93,40.18-17.54,73.71-10.73,99.65a.35.35,0,0,1-.25.43Z"/><path fill="#bab20f" d="M296.29,690.72q7.44,1.85,14.9,4.09s-3.17,2.13-7.1,4.59c8.52,9.16,17.27,17.65,25.82,25.63l1,.9c6.43,6,12.71,11.68,18.61,16.91l.56.5c14.88,13.19,27.28,23.74,33.18,28.58,1.52,1.25,2.61,2.11,3.18,2.56.29.24.45.35.45.35a5.93,5.93,0,0,0,.25-.54c.26-.61.73-1.7,1.35-3.27,5.83-13.32,24.34-71.18-1.33-132l-.35-.85a154.93,154.93,0,0,0-15.23-27.59l-.7-1c-.29-.48-.65-1-1-1.44a160.51,160.51,0,0,0-42.63-40.11c2.07,5.23.64,9.26-2.36,12.76.65-5.23-1-13.84-10.44-20.25a180.58,180.58,0,0,0-29.82-12.48c-.27-.11-.56-.18-.83-.28-35-10.83-62.29-8-66.36-7.74l-.6.06s.06.2.19.55c.94,2.6,5.57,14.44,12.41,30.58a5.66,5.66,0,0,1,.32.79c4,9.3,8.58,20,13.72,31.28a2.84,2.84,0,0,0,.75,1c7.54,6.37,15.39,8.12,24.26,4.68a22,22,0,0,1-18.21,8.9c2.08,4.39,4.27,8.82,6.56,13.25.12.25.24.44.36.7a313.93,313.93,0,0,0,24.35,40.3C286.26,678.72,291.23,684.87,296.29,690.72Z"/><path fill="#0f0f5c" d="M386.42,774.83h0a.35.35,0,0,1-.31-.39c5.48-49.81-40.16-114.65-67.86-148.87-30.75-38-58.88-59.25-100-85.17a.37.37,0,0,1-.11-.49.35.35,0,0,1,.48-.11c41.22,26,69.39,47.25,100.21,85.33,27.76,34.3,73.51,99.33,68,149.39A.36.36,0,0,1,386.42,774.83Z"/><path fill="#ffc508" d="M950.26,162.16v320.4c0,24.26-20.16,43.85-45.08,43.85H353.43c-24.83,0-45-19.59-45-43.85V162.16c0-24.25,20.16-43.93,45-43.93H905.18C930.1,118.23,950.26,137.91,950.26,162.16Z"/><path fill="#fff" d="M951.52,219.33V563.7c0,24.26-20.19,43.84-45.16,43.84H353.08C328.21,607.54,308,588,308,563.7V219.33c0-24.26,20.2-43.94,45.07-43.94H906.36C931.33,175.39,951.52,195.07,951.52,219.33Z"/><path fill="#0f0f5c" d="M906.36,607.89H353.08c-25,0-45.42-19.82-45.42-44.19V219.33c0-24.42,20.38-44.29,45.42-44.29H906.36c25.1,0,45.51,19.87,45.51,44.29V563.7C951.87,588.07,931.46,607.89,906.36,607.89ZM353.08,175.74c-24.66,0-44.72,19.55-44.72,43.59V563.7c0,24,20.06,43.49,44.72,43.49H906.36c24.71,0,44.81-19.51,44.81-43.49V219.33c0-24-20.1-43.59-44.81-43.59Z"/><path fill="#fff" d="M886.5,142.22c0-4.48-3.37-8.1-7.52-8.1a8.12,8.12,0,0,0,0,16.2C883.13,150.32,886.5,146.69,886.5,142.22Z"/><path fill="#fff" d="M843.3,142.61c0-4.47-3.37-8.1-7.52-8.1s-7.52,3.63-7.52,8.1,3.36,8.11,7.52,8.11S843.3,147.09,843.3,142.61Z"/><path fill="#fff" d="M800.91,142.61c0-4.47-3.36-8.1-7.52-8.1s-7.52,3.63-7.52,8.1,3.37,8.11,7.52,8.11S800.91,147.09,800.91,142.61Z"/><rect width="163.54" height="163.5" x="495.34" y="221.57" fill="#3f5de3"/><rect width="38.42" height="163.5" x="495.34" y="221.57" fill="#ff6b3d"/><rect width="163.54" height="163.5" x="370.21" y="221.57" fill="#3f5de3"/><polygon fill="#fff" points="658.88 236.15 526.44 304.89 658.88 373.63 658.88 385.07 635.19 385.07 503.57 316.76 495.34 321.03 495.34 288.75 503.57 293.02 641.24 221.57 658.88 221.57 658.88 236.15"/><polygon fill="#ff6b3d" points="658.88 226.82 514.11 301.95 658.88 377.09 658.88 385.07 653.18 385.07 503.57 307.43 495.34 311.7 495.34 292.21 503.57 296.48 647.91 221.57 658.88 221.57 658.88 226.82"/><polygon fill="#fff" points="370.21 236.15 502.65 304.89 370.21 373.63 370.21 385.07 393.89 385.07 525.52 316.76 533.75 321.03 533.75 288.75 525.52 293.02 387.85 221.57 370.21 221.57 370.21 236.15"/><polygon fill="#ff6b3d" points="370.21 226.82 514.98 301.95 370.21 377.09 370.21 385.07 375.91 385.07 525.52 307.43 533.75 311.7 533.75 292.21 525.52 296.48 381.18 221.57 370.21 221.57 370.21 226.82"/><polygon fill="#fff" points="540.54 282.87 540.54 221.57 533.75 221.57 495.34 221.57 488.55 221.57 488.55 282.87 370.21 282.87 370.21 323.77 488.55 323.77 488.55 385.07 495.34 385.07 533.75 385.07 540.54 385.07 540.54 323.77 658.88 323.77 658.88 282.87 540.54 282.87"/><rect width="38.42" height="163.5" x="495.34" y="221.57" fill="#ff6b3d" transform="rotate(-180 514.545 303.32)"/><rect width="30.22" height="163.54" x="436.87" y="221.55" fill="#ff6b3d" transform="rotate(90 451.98 303.32)"/><rect width="30.22" height="163.54" x="562" y="221.55" fill="#ff6b3d" transform="rotate(90 577.11 303.32)"/><rect width="84.24" height="84.24" x="700.81" y="455.35" fill="#e2e6f2"/><rect width="84.24" height="84.24" x="817.22" y="455.35" fill="#e2e6f2"/><rect width="200.65" height="7.55" x="700.81" y="235" fill="#e2e6f2"/><rect width="200.65" height="7.55" x="700.81" y="272.54" fill="#e2e6f2"/><rect width="121.96" height="7.55" x="700.81" y="310.08" fill="#e2e6f2"/><path fill="#ffb3a8" d="M947.42,468c-8.66,42.47,36.53,19.56,41.78-1.62,1.24-5-5.52-39.52-6.26-44.58l-29.11,8.73Q950.64,449.29,947.42,468Z"/><path fill="#0f0f5c" d="M950.94,446.68C962.8,466.76,980,434,979.31,427.6l-26.61-.83C951.91,432.37,951.73,441.06,950.94,446.68Z"/><path fill="#ffb3a8" d="M904.6,371c-2.23,25.65,7.5,58.45,29.57,70.29,6.34,3.4,12.44,3.24,16.43,3.14,24.09-.62,52.11-22,57.67-51.8,4.89-26.2-7-62-34.7-68.45-20.74-4.81-52.46,1.75-62,19.16C907.07,351.62,905.65,359,904.6,371Z"/><path fill="#0f0f5c" d="M904.56,375c1.84-17.95,7-26.68,7-26.68s8.4-7.3,13-7.58a2,2,0,0,1,1.42.48c17.73,13.34,33.82-.68,44.56-1.65a11.68,11.68,0,0,1,2,0c7.34,5.53,12.35,16.4,21.4,15.12-1.67,17.63,4.87,24.33,8.37,41.42,15-5.24,23.18-24,19.39-39.43a96.92,96.92,0,0,1,3.81,12.58s1.49-7.49,2.23-16.14c2.33-16.94-8.43-32.33-22.37-33.47a71.49,71.49,0,0,0,9.65-33.39c-3.94,4.29-9.32,6.37-14.41,5.57,3.56-4,5.2-10.54,4.06-16.33-21.33,33.67-46-11.23-71.24-4.64-21,5.67-34,34.82-30.07,59.23C885.83,338.36,897.27,361.36,904.56,375Z"/><ellipse cx="1007.95" cy="396.12" fill="#ffb3a8" rx="20.15" ry="15.76" transform="rotate(-68.4 1007.917 396.126)"/><path fill="#fff" d="M931.69,412.85c.14,2.83,1.76,6.37,4.28,9.31,3,3.45,7.17,6.09,11.69,5.87s8.35-3.2,11-6.86c2.3-3.23,3.62-7,3.49-9.87A48.3,48.3,0,0,1,931.69,412.85Z"/><path fill="#fff" d="M936,422.16c3,3.45,7.17,6.09,11.69,5.87s8.35-3.2,11-6.86a26.33,26.33,0,0,0-11.6-1.74A26.94,26.94,0,0,0,936,422.16Z"/><path fill="#0f0f5c" d="M961.4,370.24a.34.34,0,0,1-.27-.13.34.34,0,0,1,0-.49,27.12,27.12,0,0,1,6.59-4.59,13.91,13.91,0,0,1,15.38,2.81.35.35,0,0,1,0,.49.36.36,0,0,1-.5,0A13.22,13.22,0,0,0,968,365.67a27.13,27.13,0,0,0-6.42,4.48A.31.31,0,0,1,961.4,370.24Z"/><path fill="#0f0f5c" d="M948.38,406.2l-.13,0a16.12,16.12,0,0,1-5.33-2.91,5.67,5.67,0,0,1-1.84-5.76,8.24,8.24,0,0,1,2.15-3c.22-.23.45-.46.66-.7a14.2,14.2,0,0,0,2.63-14.59.36.36,0,0,1,.2-.46.35.35,0,0,1,.45.19,14.93,14.93,0,0,1-2.76,15.33l-.68.72a7.7,7.7,0,0,0-2,2.74,5.07,5.07,0,0,0,1.66,5,15.71,15.71,0,0,0,5.11,2.77.36.36,0,0,1,.2.46A.37.37,0,0,1,948.38,406.2Z"/><path fill="#fff" d="M987.48,383.88s-6.56,17.09-29.92,2.77c0,0,5.66-14.9,17.22-14.73S987.48,383.88,987.48,383.88Z"/><path fill="#0f0f5c" d="M957.56,387l-.12,0a.36.36,0,0,1-.21-.45c.06-.15,5.82-15,17.36-15h.2c11.73.17,13,12.16,13,12.28a.35.35,0,0,1-.32.38.34.34,0,0,1-.38-.31c0-.47-1.25-11.49-12.35-11.65h-.19c-11.05,0-16.65,14.36-16.7,14.51A.35.35,0,0,1,957.56,387Z"/><ellipse cx="969.78" cy="382.93" fill="#0f0f5c" rx="8.62" ry="9.11" transform="rotate(-89.16 969.787 382.931)"/><circle cx="977.34" cy="379.43" r="1.88" fill="#fff"/><path fill="#0f0f5c" d="M987.72,384.24h-.27a.36.36,0,0,1-.32-.38.35.35,0,0,1,.38-.32,5.91,5.91,0,0,0,3.76-1.47.35.35,0,0,1,.5.49A6.71,6.71,0,0,1,987.72,384.24Z"/><path fill="#0f0f5c" d="M933.28,371.09a.33.33,0,0,1-.21-.07,26.8,26.8,0,0,0-6.67-4.1A13.26,13.26,0,0,0,912,370.46a.35.35,0,1,1-.52-.47,13.94,13.94,0,0,1,15.19-3.72,27.09,27.09,0,0,1,6.85,4.19.34.34,0,0,1,.07.49A.35.35,0,0,1,933.28,371.09Z"/><path fill="#fff" d="M907.56,385.54s7.57,16.67,30,1c0,0-6.55-14.53-18.07-13.67S907.56,385.54,907.56,385.54Z"/><path fill="#0f0f5c" d="M937.6,386.87a.36.36,0,0,1-.32-.2c-.07-.15-6.57-14.31-17.73-13.48s-11.62,11.89-11.64,12.36a.34.34,0,0,1-.36.34.35.35,0,0,1-.33-.36c0-.12.58-12.16,12.28-13s18.35,13.73,18.42,13.88a.36.36,0,0,1-.18.46Z"/><ellipse cx="916.95" cy="383.27" fill="#0f0f5c" rx="9.07" ry="8.88" transform="rotate(-4.26 917.316 383.46)"/><circle cx="923.2" cy="378.36" r="1.94" fill="#fff"/><path fill="#0f0f5c" d="M907.11,385.93a4.51,4.51,0,0,1-3-1.37.36.36,0,0,1,0-.5.35.35,0,0,1,.49,0,3.64,3.64,0,0,0,3,1.16.35.35,0,0,1,.11.69A4.38,4.38,0,0,1,907.11,385.93Z"/><path fill="#ffb3a8" d="M823.66,533.2c-38.39,37.61-77.76,93.37-119.53,140.24-62.18,80.12,28.65,145.13,98.37,76.7C850,703.54,888.86,666.8,915.64,605.9,937.89,555.34,884.15,473.93,823.66,533.2Z"/><path fill="#ff6b3d" d="M874.14,490.94C837.83,505.49,747,620,747,620l79.75,113.84L957.1,645Z"/><polygon fill="#0f0f5c" points="857.92 578.54 812.54 712.44 830.04 739.98 873.12 731.35 857.92 578.54"/><path fill="#ff6b3d" d="M856.13,752.93C859.34,781.85,918.05,785,955,787c41.61-.16,93.22,4.26,131.93-4.24,7.16-2.53,12.24-278.49-26.47-302.51-16.48-10.22-71.22-13.89-71.22-13.89-.38,10-42.06,41.29-41.78,1.62-27.64,3.77-69.54,17.34-82.17,27.83C834.51,521.39,853.64,749.35,856.13,752.93Z"/><path fill="#0f0f5c" d="M996.2,653.88a.39.39,0,0,1-.25-.1l-39.29-40.21-34.54,40.19a.34.34,0,0,1-.27.12.36.36,0,0,1-.26-.11L886.36,615.4l-31.59,34.27a.35.35,0,0,1-.49,0,.34.34,0,0,1,0-.49l31.85-34.55a.32.32,0,0,1,.25-.12.37.37,0,0,1,.26.12L921.84,653l34.53-40.17a.34.34,0,0,1,.26-.12.37.37,0,0,1,.26.1L996.21,653l44.92-42.24a.35.35,0,0,1,.48.51l-45.17,42.48A.36.36,0,0,1,996.2,653.88Z"/><path fill="#0f0f5c" d="M1001.22,705.21a.38.38,0,0,1-.24-.09L958.4,664.89,921,705.1a.31.31,0,0,1-.26.11.35.35,0,0,1-.25-.1l-38.17-38.4L848.06,701a.35.35,0,0,1-.5-.5L882.05,666a.33.33,0,0,1,.25-.1h0a.35.35,0,0,1,.25.1l38.16,38.39,37.42-40.21a.34.34,0,0,1,.25-.11.39.39,0,0,1,.25.1l42.59,40.24,39.91-37.09a.35.35,0,0,1,.49,0,.34.34,0,0,1,0,.49l-40.15,37.32A.36.36,0,0,1,1001.22,705.21Z"/><path fill="#0f0f5c" d="M1041.13,590.54l-8.13,141-91.27,42.68,133.73-7.32C1068.86,720.16,1060.53,636.07,1041.13,590.54Z"/><path fill="#ffb3a8" d="M580.72,590.71s57.39,95.74,112.58,156.18c56.86,62.29,146.39,17.62,92.06-76-33-55-85.62-101.09-118.58-156.07C635.77,530.61,580.72,590.71,580.72,590.71Z"/><path fill="#ffb3a8" d="M525.63,507c2.39-24.73,23-20.6,23-20.6-.49-31,30.65-23.7,30.65-23.7s-43.22-54.52-26-60.52c31.35-10.92,72,67.44,78.32,67.87,8.54-1.49,13.62-50.95,34.82-35.19,15.93,11.85,9.74,113.9,9.74,113.9L597,614.14s-85-37.76-88.22-78.21C506.68,509.91,525.63,507,525.63,507Z"/><path fill="#0f0f5c" d="M595.61,525.91a22.9,22.9,0,0,1-7.71-1.48c-19.61-7-36.29-35.43-36.46-35.71a.35.35,0,0,1,.13-.48.35.35,0,0,1,.48.12c.16.29,16.72,28.47,36.08,35.41,8.13,2.91,15,1.29,18.73-4.47,3.17-4.82,3.36-11.54.43-14.67a204.61,204.61,0,0,1-28.5-38.7.35.35,0,0,1,.14-.47.35.35,0,0,1,.48.14,203.63,203.63,0,0,0,28.39,38.55c3.14,3.35,3,10.46-.35,15.54A13.75,13.75,0,0,1,595.61,525.91Z"/><path fill="#0f0f5c" d="M577.26,549.08a29.3,29.3,0,0,1-3.66-.24c-11.49-1.42-44.78-37.55-46.19-39.08a.36.36,0,0,1,0-.5.35.35,0,0,1,.5,0c.34.37,34.52,37.46,45.75,38.86,6.52.8,11.52-.51,14.86-3.89,6.06-6.17,4.7-17.3,4.53-18.55a.35.35,0,1,1,.69-.1c.29,2.09,1.45,12.86-4.73,19.14C586.2,547.63,582.25,549.08,577.26,549.08Z"/><path fill="#0f0f5c" d="M559,567.67a9.94,9.94,0,0,1-3-.43c-12.67-4-28.13-18.16-28.29-18.31a.35.35,0,0,1,0-.49.36.36,0,0,1,.5,0c.15.14,15.5,14.25,28,18.15,4.86,1.51,12-1.39,16-6.48,1.61-2.08,3.91-6.22,1.2-10.61a.35.35,0,1,1,.59-.37c2.18,3.52,1.73,7.57-1.24,11.4C569.34,564.86,563.69,567.67,559,567.67Z"/><path fill="#0f0f5c" d="M625.14,519.05a.35.35,0,0,1-.34-.29,79.64,79.64,0,0,1,4.64-43.63.36.36,0,0,1,.46-.19.35.35,0,0,1,.19.45,79,79,0,0,0-4.6,43.25.36.36,0,0,1-.28.41Z"/><path fill="#ffb3a8" d="M1046.16,604.52c0,7.25,23.49,149.62,36.74,212,28.17,99.07,139.07,85.16,128.58-28.46-8.24-89.13-15.45-127.82-49.18-186.36C1134.29,553.08,1072.5,522.65,1046.16,604.52Z"/><path fill="#ff6b3d" d="M1048.48,476.4c-27.65,74,13,232.58,13,232.58,56.46,7,116-10.3,136.68-21.36,0,0-21.81-140.56-87.19-188C1091.54,485.5,1050.1,477.73,1048.48,476.4Z"/><path fill="#ffb3a8" d="M932,767.75l187.39-11.44c105.56-4.75,116.45,118.74,21.87,132.35-64.4,4.51-140.33,4.24-210.75-7.39Q931.28,824.51,932,767.75Z"/><path fill="#0f0f5c" d="M1078.19,679.88a195,195,0,0,1-26.26-1.76.35.35,0,0,1-.3-.39.36.36,0,0,1,.4-.3,203.82,203.82,0,0,0,133.13-28.51.35.35,0,0,1,.37.59C1153.79,669.29,1115.79,679.88,1078.19,679.88Z"/><path fill="#0f0f5c" d="M903.17,777.94a6.84,6.84,0,0,1-6.84,6.84h-327a6.84,6.84,0,0,1-6.52-4.76L510.13,615.16a6.84,6.84,0,0,1,6.52-8.93H736a6.84,6.84,0,0,1,6.52,4.75l50,155.36a6.84,6.84,0,0,0,6.52,4.75h97.31a6.85,6.85,0,0,1,6.84,6.85Z"/><path fill="#ffb3a8" d="M788.84,783.88s92.59,1.15,100.12,0c0,0,4.36-11.69-.54-12.79-10.51-2.35-32.66-1.78-32.66-1.78-.33-17.85,35.42-39,58-32.88,37.33,10.17,84.32,38,95.37,43.76,10.17,18.91,17.41,69.66,9.2,97,0,0-25.42,31.24-55.93,37.93-28.95,6-65.45-7.77-71.64-34.7-12.51,3.92-31.46-10.37-29.35-25.28-13.68,2.69-34.26-19.38-32.88-30.55C817.15,831.39,768.81,797.27,788.84,783.88Z"/><path fill="#0f0f5c" d="M902.16,824.27H829.6a.35.35,0,0,1-.35-.35.35.35,0,0,1,.35-.35h72.56a.35.35,0,0,1,.35.35A.35.35,0,0,1,902.16,824.27Z"/><path fill="#0f0f5c" d="M934.09,855.32H861.53a.35.35,0,0,1-.35-.35.35.35,0,0,1,.35-.35h72.56a.35.35,0,0,1,.35.35A.35.35,0,0,1,934.09,855.32Z"/><path fill="#0f0f5c" d="M964.93,881.39H892.37a.35.35,0,1,1,0-.69h72.56a.35.35,0,1,1,0,.69Z"/><path fill="#0f0f5c" d="M950.9,506.5a27.34,27.34,0,0,1-14.18-3.56c-9.65-5.81-11.19-17.51-4.11-31.32a.35.35,0,0,1,.47-.15.36.36,0,0,1,.15.48c-6.89,13.43-5.45,24.8,3.85,30.39,13,7.84,42,3,62.54-26.39a.34.34,0,0,1,.48-.09.35.35,0,0,1,.09.49C986.07,496.6,966.37,506.5,950.9,506.5Z"/><path fill="#617dff" d="M995.49,140.11h168.63a7.73,7.73,0,0,1,7.74,7.74v71.34a7.74,7.74,0,0,1-7.74,7.74H1047.3l-29.91,29.36V226.93h-21.9a7.75,7.75,0,0,1-7.74-7.74V147.85A7.74,7.74,0,0,1,995.49,140.11Z"/><path fill="#fff" d="M1024.35,183.88h-4.78V165.76a6.75,6.75,0,0,1,2.21-.41,3.13,3.13,0,0,1,1.93.5,2,2,0,0,1,.64,1.66Zm-4.78-3.9h4.78v21c-.24.08-.55.16-.94.26a5.05,5.05,0,0,1-1.28.15,3,3,0,0,1-1.92-.53,2,2,0,0,1-.64-1.63Zm25.47,5.13h-22.62v-4H1045Zm2.27-1.23h-4.78V165.76a5.86,5.86,0,0,1,.9-.26,5.56,5.56,0,0,1,1.32-.15,3.12,3.12,0,0,1,1.92.5,2,2,0,0,1,.64,1.66Zm-4.78-3.9h4.78v21c-.23.08-.55.16-.93.26a5.19,5.19,0,0,1-1.29.15,3,3,0,0,1-1.92-.53,2,2,0,0,1-.64-1.63Z"/><path fill="#fff" d="M1058.56,190.59l-.24-3.68,17.6-2.39a8.2,8.2,0,0,0-2.21-5.27,7.23,7.23,0,0,0-5.48-2.07,7.74,7.74,0,0,0-6,2.59c-1.58,1.73-2.36,4.21-2.36,7.43v1.29a9.41,9.41,0,0,0,10.31,9.5,11.43,11.43,0,0,0,4.43-.82,13,13,0,0,0,3.15-1.75,3.49,3.49,0,0,1,1,1,2.2,2.2,0,0,1,.38,1.26,2.68,2.68,0,0,1-1.26,2.07,9.77,9.77,0,0,1-3.32,1.54,17,17,0,0,1-4.63.58,17.3,17.3,0,0,1-7.78-1.63,11.42,11.42,0,0,1-5.07-4.87,16.09,16.09,0,0,1-1.78-7.89,17,17,0,0,1,1-5.92,12.81,12.81,0,0,1,2.68-4.4,11.8,11.8,0,0,1,4.11-2.77,13.77,13.77,0,0,1,5.19-1,12.59,12.59,0,0,1,6.26,1.52,11,11,0,0,1,4.26,4.22,12.33,12.33,0,0,1,1.54,6.21,2.45,2.45,0,0,1-.58,1.84,2.74,2.74,0,0,1-1.63.67Z"/><path fill="#fff" d="M1092.24,188.6l-4.66-.64V163.31a6.79,6.79,0,0,1,.9-.26,5.3,5.3,0,0,1,1.26-.15,3,3,0,0,1,1.89.5,1.93,1.93,0,0,1,.61,1.6Zm-4.66-2.91,4.66.7V201a7.62,7.62,0,0,1-.87.26,5.19,5.19,0,0,1-1.29.15,3,3,0,0,1-1.86-.5,1.88,1.88,0,0,1-.64-1.6Z"/><path fill="#fff" d="M1106.75,188.6l-4.66-.64V163.31a6.79,6.79,0,0,1,.9-.26,5.3,5.3,0,0,1,1.26-.15,3,3,0,0,1,1.89.5,1.93,1.93,0,0,1,.61,1.6Zm-4.66-2.91,4.66.7V201a7.62,7.62,0,0,1-.87.26,5.19,5.19,0,0,1-1.29.15,3,3,0,0,1-1.86-.5,1.88,1.88,0,0,1-.64-1.6Z"/><path fill="#fff" d="M1141,187.61a16.47,16.47,0,0,1-1.63,7.52,11.74,11.74,0,0,1-4.61,5,13.49,13.49,0,0,1-7,1.75,13.65,13.65,0,0,1-7-1.75,11.75,11.75,0,0,1-4.64-5,16.47,16.47,0,0,1-1.63-7.52,16.13,16.13,0,0,1,1.66-7.54,12,12,0,0,1,4.67-4.93,14.68,14.68,0,0,1,13.9,0,12.11,12.11,0,0,1,4.63,4.93A16,16,0,0,1,1141,187.61Zm-13.23-10.37a7.66,7.66,0,0,0-6.21,2.77,11.55,11.55,0,0,0-2.3,7.6c0,3.27.75,5.81,2.25,7.64a8.43,8.43,0,0,0,12.47,0,14,14,0,0,0,0-15.21A7.55,7.55,0,0,0,1127.73,177.24Z"/><path fill="#617dff" d="M574.69,772.71H432.43v-38H574.69a6,6,0,0,0,0-12.07H401.81v62.14H574.69a6,6,0,0,0,0-12.07Z"/><rect width="143.34" height="62.14" x="258.47" y="722.64" fill="#617dff"/><rect width="143.4" height="38" x="432.43" y="734.71" fill="#fff"/><rect width="84.37" height=".7" x="432.43" y="746.97" fill="#b8c0d4"/><rect width="135.3" height=".7" x="432.43" y="760.22" fill="#b8c0d4"/><rect width="11.79" height="62.14" x="339.03" y="722.64" fill="#ff6b3d"/><rect width="11.79" height="62.14" x="372.14" y="722.51" fill="#ff6b3d"/><path fill="#ffc508" d="M264.5,710.44H406.77v-38H264.5a6,6,0,0,1,0-12.07H437.38v62.15H264.5a6,6,0,0,1,0-12.07Z"/><rect width="143.34" height="62.14" x="437.38" y="660.36" fill="#ffc508"/><path fill="#fff" d="M435.49,684.78v4.93h6.62v3.13h-6.62v5.21H443v3.21H431.55V681.57H443v3.21Z"/><path fill="#fff" d="M466.17,701.26h-3.94l-8.93-13.49v13.49h-3.95V681.57h3.95l8.93,13.52V681.57h3.94Z"/><path fill="#fff" d="M486.57,687.51a4.61,4.61,0,0,0-1.86-1.88A5.58,5.58,0,0,0,482,685a6,6,0,0,0-3.1.79,5.34,5.34,0,0,0-2.11,2.25,8,8,0,0,0,0,6.82,5.51,5.51,0,0,0,2.16,2.25,6.31,6.31,0,0,0,3.21.79,5.57,5.57,0,0,0,3.69-1.2,5.67,5.67,0,0,0,1.89-3.34h-6.77v-3h10.65v3.44a9.09,9.09,0,0,1-1.69,3.8,9.38,9.38,0,0,1-3.33,2.8,9.78,9.78,0,0,1-4.58,1.06,10.4,10.4,0,0,1-5.14-1.28,9.25,9.25,0,0,1-3.61-3.57,10.23,10.23,0,0,1-1.31-5.18,10.35,10.35,0,0,1,1.31-5.2,9.27,9.27,0,0,1,3.61-3.58,10.34,10.34,0,0,1,5.11-1.28,10.2,10.2,0,0,1,5.77,1.62,8.27,8.27,0,0,1,3.39,4.55Z"/><path fill="#fff" d="M501.28,698.13h6.48v3.13H497.33V681.6h3.95Z"/><path fill="#fff" d="M517,681.6v19.66h-3.95V681.6Z"/><path fill="#fff" d="M526.82,700.75a6,6,0,0,1-2.61-2,5.37,5.37,0,0,1-1-3.13h4.23a2.7,2.7,0,0,0,.86,1.91,3.06,3.06,0,0,0,2.13.71,3.29,3.29,0,0,0,2.17-.66,2.18,2.18,0,0,0,.79-1.74,2,2,0,0,0-.54-1.43,3.74,3.74,0,0,0-1.34-.89,19.92,19.92,0,0,0-2.21-.72,23.17,23.17,0,0,1-3.11-1.11,5.48,5.48,0,0,1-2.06-1.66,4.79,4.79,0,0,1-.86-3,5.34,5.34,0,0,1,.87-3,5.68,5.68,0,0,1,2.46-2,8.89,8.89,0,0,1,3.6-.69,7.88,7.88,0,0,1,4.95,1.48,5.52,5.52,0,0,1,2.09,4.13h-4.33a2.3,2.3,0,0,0-.86-1.68,3.27,3.27,0,0,0-2.13-.66,2.77,2.77,0,0,0-1.85.59,2.15,2.15,0,0,0-.69,1.72,1.76,1.76,0,0,0,.53,1.31,3.87,3.87,0,0,0,1.29.85c.52.21,1.25.46,2.18.74a24.36,24.36,0,0,1,3.13,1.13,5.73,5.73,0,0,1,2.09,1.69,4.71,4.71,0,0,1,.87,3,5.52,5.52,0,0,1-.82,2.93,5.79,5.79,0,0,1-2.39,2.16,8.23,8.23,0,0,1-3.75.8A9.32,9.32,0,0,1,526.82,700.75Z"/><path fill="#fff" d="M560,681.6v19.66h-3.94v-8.37h-8.43v8.37h-3.94V681.6h3.94v8.08h8.43V681.6Z"/><rect width="143.4" height="38" x="263.37" y="672.43" fill="#fff"/><rect width="84.37" height=".7" x="322.4" y="684.69" fill="#b8c0d4"/><rect width="135.3" height=".7" x="271.46" y="697.95" fill="#b8c0d4"/><path fill="#0f0f5c" d="M570.06,710.79H419.37a.35.35,0,0,1-.35-.35v-38a.35.35,0,0,1,.35-.35H570.06a.35.35,0,0,1,.35.35v38A.35.35,0,0,1,570.06,710.79Zm-150.34-.7h150V672.78h-150Z"/><path fill="#ffc508" d="M243.86,367.55,218.69,383,222,397.42,204.79,408l-17.07-82.43,19-11.69,65.86,52.42L255.22,377Zm-12-10.08L208.3,337.93l6.92,29.76Z"/><path fill="#617dff" d="M652.56,94.06a20.12,20.12,0,0,1,9.06,9.91q4.13,9.44-.06,17.85t-16,13.57l-35.08,15.33L577.57,75.39l33.91-14.81q11.47-5,20.27-2.6t12.73,11.43A18.83,18.83,0,0,1,645.82,82a19.66,19.66,0,0,1-6.61,10.17A19.16,19.16,0,0,1,652.56,94.06Zm-43.32,3.79,12-5.25c3-1.32,5-3,6.06-5a7.82,7.82,0,0,0-.14-6.91,8,8,0,0,0-5-4.84q-3.3-1-7.81,1l-12,5.25Zm32.87,18.92a8.09,8.09,0,0,0-.13-7.16,8.45,8.45,0,0,0-5.35-5.07q-3.61-1.11-8.23.91l-13.3,5.81,7.26,16.63,13.52-5.9C639,120.64,641,118.9,642.11,116.77Z"/><path fill="#ff6b3d" d="M751.42,330.83a37.59,37.59,0,0,1,4.69-20.37,42.61,42.61,0,0,1,15.38-15.76q12.45-7.69,25.38-6.6a37.15,37.15,0,0,1,22.93,10.61l-18.73,11.57a17.8,17.8,0,0,0-10.05-3,19.55,19.55,0,0,0-10.13,3.09,19.12,19.12,0,0,0-9.37,13.36q-1.5,8.49,4.16,17.66T789.61,353a19.15,19.15,0,0,0,16.14-2.4,19.62,19.62,0,0,0,7.3-7.67,17.75,17.75,0,0,0,1.8-10.34L833.58,321a36.79,36.79,0,0,1-.81,25.21q-4.83,12-17.29,19.69a42.7,42.7,0,0,1-21,6.7,37.84,37.84,0,0,1-20.29-4.88,47.33,47.33,0,0,1-22.79-36.92Z"/><path fill="#0f0f5c" d="M300.18,212.11c2.36,3.23,10.59,1.72,22.11-3.34,12.53-5.49,29-15.19,46-27.59,32.7-23.81,55.24-48.57,50.34-55.31a3.39,3.39,0,0,0-.66-.65c0-.1.09-.19.14-.29l-39.61-45L269,159.61l30.69,51.52h0A3.53,3.53,0,0,0,300.18,212.11Z"/><polygon fill="#36368a" points="419.7 43.49 334.27 133.25 221.71 187.66 306.56 96.15 419.7 43.49"/><path fill="#ffc508" d="M266.31,269a35,35,0,0,1-6.87,6.47c-4.8,3.42-10.54,5.64-11.21,4.41-1.37-2.51,10.35-7.65,10.3-8.78-.12-2.28-10.61,5.53-11.88,4.47-1.84-1.53-3.51-6.42-2.86-8.54,1.13-3.66,7.56-4.64,10.62-5.1a26.34,26.34,0,0,1,9.54.29c2.74-3.17,6.55-3.92,8.7-2.42a4.22,4.22,0,0,1,1.76,3.7C274.17,266.14,270.9,268.87,266.31,269Z"/><path fill="#ffc508" d="M314.49,112.37c-1.45-1.1-3.93-.28-5.56,1.84s-1.76,4.73-.32,5.84a2.42,2.42,0,0,0,.63.34,67.15,67.15,0,0,1-12.33,29c-7.39,9.9-17.88,17.07-24.58,27.52a33.22,33.22,0,0,0-5.5,15,30.66,30.66,0,0,0,3.07,15.29c4.48,9.85,12.52,18.74,13.74,29.83a26.11,26.11,0,0,1-20.35,28.51c-1.6.37-.8,2.79.79,2.42a28.94,28.94,0,0,0,22.05-24.52,31.63,31.63,0,0,0-2.58-16.14c-2.18-5.12-5.18-9.82-7.94-14.64s-5.35-9.8-6.11-15.29a26.57,26.57,0,0,1,2.95-15.59c5.71-11.32,16.54-18.66,24.45-28.27a69.71,69.71,0,0,0,15-33.4,6.42,6.42,0,0,0,2.32-1.9C315.8,116.1,315.94,113.48,314.49,112.37Z"/><path fill="#ffb70f" d="M372.74,462.14l-6.22-7.36a28.5,28.5,0,0,0-40.16-3.34h0A28.49,28.49,0,0,0,323,491.6l6.22,7.35a28.5,28.5,0,0,0,40.16,3.35h0A28.5,28.5,0,0,0,372.74,462.14Z"/><rect width="15.98" height="77.59" x="242.6" y="676.96" fill="#0f0f5c"/><path fill="#0f0f5c" d="M258.57,676.51l-15.34,5Q205.9,604.28,168.58,527l15.81-4.25Q221.49,599.66,258.57,676.51Z"/><path fill="#0f0f5c" d="M174.38,538.16l-7.64-14.23q69.51-50.29,139-100.61l7,14.82Z"/><rect width="35.54" height="32.62" x="294.14" y="418.04" fill="#ff6b3d" transform="rotate(49.76 311.904 434.368)"/><path fill="#ff6b3d" d="M336.56,432a172.81,172.81,0,0,1,29.14-3.29,174.69,174.69,0,0,1,46.55,5L295.09,530s-6.58-28,7.93-70.55Z"/><circle cx="179.21" cy="529" r="18.35" fill="#ff6b3d"/><circle cx="249.41" cy="681.53" r="18.35" fill="#ff6b3d"/><polygon fill="#0f0f5c" points="166.74 778.39 242.6 753.73 258.57 753.73 333.5 778.39 166.74 778.39"/><rect width="166.75" height="6.26" x="166.74" y="778.39" fill="#0f0f5c"/><path fill="#0f0f5c" d="M793.39,785.13H148.44a.35.35,0,0,1,0-.7h645a.35.35,0,1,1,0,.7Z"/><path fill="#0f0f5c" d="M502.54,837.28H378a.35.35,0,0,1,0-.7H502.54a.35.35,0,0,1,0,.7Z"/><path fill="#ffc508" d="M1114.37,296.11c-8.12-2.43-14.47-11.05-16.26-22.08l-1-6-1,6c-1.8,11-8.14,19.65-16.27,22.08l-4.43,1.33,4.43,1.32c8.13,2.43,14.47,11.05,16.27,22.08l1,6,1-6c1.79-11,8.14-19.65,16.26-22.08l4.44-1.32Z"/><path fill="#617dff" d="M200.33,232.13c3.76-1.12,6.69-5.1,7.52-10.2l.45-2.78.45,2.78c.83,5.1,3.76,9.08,7.52,10.2l2,.62-2,.61c-3.76,1.12-6.69,5.1-7.52,10.2l-.45,2.78-.45-2.78c-.83-5.1-3.76-9.08-7.52-10.2l-2.05-.61Z"/><path fill="#617dff" d="M1197.93,557.39c3.76-1.13,6.69-5.11,7.52-10.21l.45-2.78.45,2.78c.83,5.1,3.76,9.08,7.52,10.21l2,.61-2,.61c-3.76,1.13-6.69,5.11-7.52,10.2l-.45,2.79-.45-2.79c-.83-5.09-3.76-9.07-7.52-10.2l-2-.61Z"/></svg>